<svg xmlns="http://www.w3.org/2000/svg" viewBox="0 0 64 64" width="64" height="64">
  <!-- Water background circle -->
  <circle cx="32" cy="32" r="30" fill="#3B82F6"/>
  <!-- Swimmer head -->
  <circle cx="20" cy="22" r="4.5" fill="white"/>
  <!-- Swimmer body/arm stroke -->
  <path d="M24 24 C28 20, 34 18, 42 16 L44 14 C36 16, 28 18, 22 22" fill="white" opacity="0.9"/>
  <path d="M18 26 C22 28, 28 26, 34 24 C38 22, 42 22, 46 24" stroke="white" stroke-width="4" stroke-linecap="round" fill="none"/>
  <!-- Water waves -->
  <path d="M8 36 Q14 32, 20 36 Q26 40, 32 36 Q38 32, 44 36 Q50 40, 56 36" stroke="white" stroke-width="2.5" stroke-linecap="round" fill="none" opacity="0.7"/>
  <path d="M8 44 Q14 40, 20 44 Q26 48, 32 44 Q38 40, 44 44 Q50 48, 56 44" stroke="white" stroke-width="2.5" stroke-linecap="round" fill="none" opacity="0.5"/>
</svg>
